<svg xmlns="http://www.w3.org/2000/svg" id = "el" width="89.727" height="89.727">
    <g fill="#fff">
        <path d="M50.67 89.35A44.863 44.863 0 0 1 .38 50.683 44.863 44.863 0 0 1 39.028.38a44.863 44.863 0 0 1 50.315 38.634 44.863 44.863 0 0 1-38.618 50.327" opacity=".99" fill="purple"/>
        <path d="M75.302 17.532H14.697a5.381 5.381 0 0 0-5.375 5.375v43.381a5.381 5.381 0 0 0 5.375 5.375h60.605a5.381 5.381 0 0 0 5.375-5.375V22.907a5.381 5.381 0 0 0-5.375-5.375zm1.685 48.756c0 .928-.755 1.684-1.685 1.684H14.697c-.929 0-1.684-.756-1.684-1.684V22.907c0-.929.755-1.685 1.684-1.685h60.605c.93 0 1.684.756 1.684 1.685v43.38zM32.756 14.919a1.846 1.846 0 0 0 1.787 1.382h22.144a1.847 1.847 0 0 0 .896-3.459L46.511 6.691a1.845 1.845 0 0 0-1.793 0l-11.073 6.151a1.849 1.849 0 0 0-.889 2.077zm12.859-4.503l3.95 2.195h-7.9zM44.718 82.503a1.846 1.846 0 0 0 1.793 0l11.073-6.15a1.845 1.845 0 0 0-.897-3.46H34.543a1.846 1.846 0 0 0-.896 3.46zm4.847-5.92l-3.95 2.196-3.95-2.195z"/>
        <path d="M32.203 33.776a4.809 4.809 0 0 0 2.955 1.018 4.808 4.808 0 0 0 2.955-1.018 4.82 4.82 0 0 0 1.875-3.811 4.835 4.835 0 0 0-4.83-4.83 4.835 4.835 0 0 0-4.83 4.83 4.82 4.82 0 0 0 1.875 3.811zM40.009 35.305c-.006.006-.01.013-.016.018-.37.355-.78.666-1.222.93a6.782 6.782 0 0 1-7.282-.189 6.653 6.653 0 0 1-.91-.74l-.025-.023c-.027-.001-.037-.012-.065-.012-1.389 0-3.943 2.11-3.943 4.218v12.636c0 1.007.869 1.842 2.026 2.028.132.02.495.027.564.023 0 .12-.13 6.214-.13 6.214v3.167c0 1.188 1.358 1.937 2.73 1.937h.37c1.374 0 3.052-.749 3.052-1.937V56.9h1.23v6.853c0 1.19.693 1.759 2.047 1.759h.366c1.354 0 2.508-.57 2.508-1.757v-3.368s-.053-5.814-.048-6.015c.052-.001.487-.2.616-.227 1.097-.223 1.893-1.03 1.893-2.001V39.508c0-2.02-2.343-4.038-3.761-4.203zM53.117 33.776a4.814 4.814 0 0 0 2.955 1.018 4.813 4.813 0 0 0 2.955-1.018 4.821 4.821 0 0 0 1.875-3.811 4.835 4.835 0 0 0-4.83-4.83 4.835 4.835 0 0 0-4.83 4.83c0 1.549.737 2.926 1.875 3.811zM60.924 35.305c-.008.006-.01.013-.017.018-.37.355-.779.666-1.22.93a6.788 6.788 0 0 1-7.283-.189 6.74 6.74 0 0 1-.936-.763c-.026-.001-.036-.012-.065-.012-1.389 0-3.943 2.11-3.943 4.218v12.636c0 1.007.869 1.842 2.026 2.028.132.02.495.027.565.023 0 .12-.13 6.214-.13 6.214v3.167c0 1.188 1.357 1.937 2.73 1.937h.37c1.374 0 3.051-.749 3.051-1.937V56.9h1.23v6.853c0 1.19.692 1.759 2.047 1.759h.366c1.355 0 2.508-.57 2.508-1.757v-3.368s-.053-5.814-.048-6.015c.052-.001.488-.2.616-.227 1.097-.223 1.893-1.03 1.893-2.001V39.508c0-2.02-2.343-4.038-3.76-4.203z"/>
    </g>
</svg>
