<svg xmlns="http://www.w3.org/2000/svg" width="89.727" height="89.727">
    <path d="M50.67 89.35A44.863 44.863 0 0 1 .38 50.683 44.863 44.863 0 0 1 39.028.38a44.863 44.863 0 0 1 50.315 38.634 44.863 44.863 0 0 1-38.618 50.327" opacity=".99" fill="#540"/>
    <g fill="#fff">
        <path d="M29.429 24.652a6.347 6.347 0 0 0 6.349-6.348 6.347 6.347 0 0 0-6.349-6.349 6.347 6.347 0 0 0-6.349 6.349 6.347 6.347 0 0 0 6.349 6.348zM57.998 24.652a6.347 6.347 0 0 0 6.348-6.348 6.347 6.347 0 0 0-6.348-6.349 6.347 6.347 0 0 0-6.349 6.349 6.347 6.347 0 0 0 6.349 6.348zM34.19 27.827h-9.522c-3.492 0-6.35 2.857-6.35 6.348v17.459h4.762V75.44h12.697V51.634h4.762V34.175c0-3.491-2.857-6.348-6.349-6.348zM64.203 32.175a6.329 6.329 0 0 0-6.015-4.348h-.365a6.328 6.328 0 0 0-6.015 4.348l-8.095 24.22h9.523v19.046h9.523V56.395h9.523z"/>
    </g>
</svg>
