<svg xmlns="http://www.w3.org/2000/svg">
    <path d="M45.137 62.01v.001l.005.003h0l.006.001h.005l.005-.004h0l.004-.005h0V62h0v-.005h0l-.004-.005h0l-.005-.004h-.005 0-.006 0l-.005.004h0l-.003.005h0l-.001.005h0v.006h0l.004.005" stroke="#b4897d" fill="#b4897d" stroke-width=".08"/>
    <g stroke="#b4897d" fill="#b4897d" stroke-width=".08">
        <path d="M45.505 62.257l.003.005.005.004h.011l.005-.004.004-.005v-.005.005l-.004.005-.005.004h-.011l-.005-.004-.003-.005-.001-.005v.005"/>
        <path d="M45.534 62.252l-.001-.006-.004-.005.004.005v.006M45.53 62.241l-.006-.003.005.003M45.524 62.238l-.005-.001h.005M45.519 62.237h-.006l-.005.004-.003.005.003-.005.005-.003.006-.001M45.505 62.246l-.001.006v-.006"/>
    </g>
    <path d="M26.964 49.344l.003.005.005.003.006.001h.005l.005-.004.004-.005v-.011l-.004-.005-.005-.004h-.011l-.005.004-.003.005-.001.005.001.006M36.699 67.238h0l-.015-.008-.004.008h0l-.096.175-.002.005-.093.171-.005.008-.091.169-.007.011-.09.166-.008.015-.088.162-.01.018-.01.018-.088.163-.01.02-.088.16-.012.023-.086.158-.013.024-.085.157-.084.155-.014.026-.014.026-.084.155-.014.026-.085.155-.028.052-.168.31.015.008.028-.053.168-.309.014-.026.085-.155.084-.155.014-.026.085-.156.013-.025.014-.024.084-.156.013-.024.086-.157.012-.022.086-.159.088-.162.01-.018.09-.166.008-.015.09-.168.007-.012.094-.171.004-.009.095-.175.003-.005.002-.004.095-.175h0l.005-.009M38.283 67.632l-.012-.007-.004-.002-.092.168-.003.005-.128.236-.006.011-.125.23-.009.017-.122.225-.012.022-.12.221-.014.026-.119.218-.016.03-.016.03-.118.217-.116.214-.019.034-.115.212-.02.036-.114.212-.02.036-.23.424-.04.072.016.008.23-.424.04-.072.019-.036.115-.212.116-.213.019-.034.117-.216.018-.032.118-.218.017-.03.12-.22.014-.027.123-.225.011-.022.125-.23.01-.017.127-.235.007-.012.13-.242.004-.005.094-.174" stroke="#b4897d" fill="#b4897d" stroke-width=".08"/>
    <g>
        <g stroke="#b4897d" fill="#b4897d" stroke-width=".08">
            <path d="M45.43 62.207h.003v-.005h0v.004h-.004 0l-.001-.002v-.001h0v.003h.002M45.433 62.202h-.001l-.001-.001h.002M45.43 62.2v.001h-.001.002M45.429 62.202h0"/>
        </g>
        <path d="M38.35 75.462v-.001h-.001v-.001h-.001 0-.001 0-.001 0-.001 0l-.001.001v.001h0v.001h0v.001h.002v.001h.002l.002-.002h0v-.001M38.49 75.167l-.002.005h0l-.002.005h0l.002.006h0l.003.005h0l.005.003h0l.005.001h.006l.005-.004h0l.003-.005h0l.001-.005h0v-.006h0l-.004-.005h0l-.005-.003h0l-.005-.002-.006.001h0l-.005.004h0M27.067 48.823h.002v-.001h0v-.001h0v-.001h0v-.001h0v-.001h0-.002 0-.001 0-.001 0v.001h0l-.001.001h0v.002h.001v.001h.001M27.086 48.897h0-.002 0-.001 0l-.001.001h0v.001h0v.002h0l.001.001h.003l.001-.002h0v-.001h0v-.001h0v-.001h-.001M38.079 75.96h0v-.001h0l-.001-.001h0-.001 0-.001 0-.002 0v.001h0v.001h0v.002h0l.001.001h.003v-.001l.001-.001h0v-.001M27.05 48.738h0-.001 0-.001v.001h-.001v.001h0v.001h0v.001h0v.001h.001v.001h.003v-.001h.001v-.001h0v-.002h0v-.001h0-.002M26.928 48.185h-.001 0-.001 0-.001 0v.001h-.001v.001h0v.002h0l.002.001h.002l.002-.001h0v-.001h0v-.002h-.001 0l-.001-.001h0M37.886 76.315h0-.001 0l-.001-.001h0-.001 0-.001 0-.001 0l-.001.001h0v.001h0v.002h0l.002.001h.003v-.002h0v-.002" stroke="#b4897d" fill="#b4897d" stroke-width=".08"/>
        <g stroke="#b4897d" fill="#b4897d" stroke-width=".08">
            <path d="M41.41 73.803h.004l.001-.002v-.002h0l-.002-.002h0-.003l-.001.002v.004M41.38 73.876l.002-.003v-.004l-.002-.003-.003-.002h-.007l-.003.001-.002.003-.001.003v.004l.002.003.003.002.003.001h.003l.004-.002.002-.003"/>
        </g>
        <path d="M27.156 49.213h0-.002 0-.002 0v.002h0v.002h0l.001.002h.002l.002-.001h0v-.001h0v-.002h0v-.001h0l-.001-.001" stroke="#b4897d" fill="#b4897d" stroke-width=".08"/>
        <g stroke="#b4897d" fill="#b4897d" stroke-width=".08">
            <path d="M50.865 48.438l.025.014.014-.026-.025-.014-.014.026"/>
            <path d="M50.964 48.276l-.084.154.009.004.083-.153-.008-.005"/>
        </g>
        <g stroke="#b4897d" fill="#b4897d" stroke-width=".08">
            <path d="M21.307 41.08l.027-.006-.006-.03-.027.006.006.03"/>
            <path d="M21.275 40.892l.038.171.01-.002-.039-.171-.01.002"/>
        </g>
        <g stroke="#b4897d" fill="#b4897d" stroke-width=".08">
            <path d="M55.428 51.35l-.024-.013-.015.026.025.013.014-.026"/>
            <path d="M55.32 51.508l.01.005.083-.154-.009-.005-.083.154"/>
        </g>
        <g stroke="#b4897d" fill="#b4897d" stroke-width=".08">
            <path d="M53.123 55.594l-.025-.013-.014.026.024.014.015-.027"/>
            <path d="M53.015 55.752l.01.005.083-.154-.01-.005-.083.154"/>
        </g>
        <g stroke="#b4897d" fill="#b4897d" stroke-width=".08">
            <path d="M57.927 46.562l-.024-.013-.015.026.025.014.014-.027"/>
            <path d="M57.912 46.571l-.009-.005-.465.857.009.005.465-.857"/>
            <path d="M57.447 47.428l-.009-.005-.473.87.01.005.472-.87M56.974 48.298l-.009-.005-.472.87.009.005.472-.87"/>
            <path d="M56.502 49.168l-.01-.005-.472.87.01.005.472-.87"/>
            <path d="M56.03 50.038l-.01-.005-.253.465.01.005.252-.465M55.506 50.96l.025.013.014-.026-.024-.014-.015.027"/>
            <path d="M55.776 50.503l-.009-.005-.245.453.008.005.246-.453"/>
        </g>
        <g stroke="#b4897d" fill="#b4897d" stroke-width=".08">
            <path d="M58.006 46.605l-.024-.013-.015.026.025.013.014-.026"/>
            <path d="M57.991 46.614l-.008-.005-.466.857.009.005.465-.857"/>
            <path d="M57.526 47.47l-.009-.004-.473.87.01.005.472-.87"/>
            <path d="M57.053 48.34l-.008-.004-.473.87.009.005.472-.87"/>
            <path d="M56.58 49.21l-.008-.004-.473.87.01.005.472-.87"/>
            <path d="M56.108 50.08l-.009-.004-.253.465.01.005.252-.465M55.585 51.003l.025.013.014-.026-.024-.014-.015.027"/>
            <path d="M55.855 50.546l-.009-.005-.245.453.008.005.246-.453"/>
        </g>
        <g stroke="#b4897d" fill="#b4897d" stroke-width=".08">
            <path d="M25.494 35.01l-.028.007.007.03.027-.007-.006-.03"/>
            <path d="M25.518 35.21l.01-.002-.04-.18-.01.002.04.18"/>
        </g>
        <g stroke="#b4897d" fill="#b4897d" stroke-width=".08">
            <path d="M26.552 39.918l.027-.006-.006-.03-.028.007.007.03"/>
            <path d="M26.527 39.719l-.01.002.04.18.01-.002-.04-.18"/>
        </g>
        <g stroke="#b4897d" fill="#b4897d" stroke-width=".08">
            <path d="M27.722 45.2l.027-.006-.007-.03-.027.007.007.029"/>
            <path d="M27.697 45l-.01.003.04.18.01-.002-.04-.18"/>
        </g>
        <g stroke="#b4897d" fill="#b4897d" stroke-width=".08">
            <path d="M31.221 61.007l.028-.006-.007-.03-.027.007.006.03"/>
            <path d="M31.197 60.808l-.01.002.04.18.01-.002-.04-.18"/>
        </g>
        <g stroke="#b4897d" fill="#b4897d" stroke-width=".08">
            <path d="M30.164 56.1l-.027.006.006.029.028-.006-.007-.03"/>
            <path d="M30.189 56.299l.01-.002-.04-.18-.01.001.04.181"/>
        </g>
        <g stroke="#b4897d" fill="#b4897d" stroke-width=".08">
            <path d="M20.249 36.172l-.027.006.006.03.027-.006-.006-.03"/>
            <path d="M20.283 36.37l-.04-.181-.01.002.04.18.01-.002"/>
        </g>
        <g stroke="#b4897d" fill="#b4897d" stroke-width=".08">
            <path d="M32.39 66.28l.027-.007-.006-.03-.028.007.007.03"/>
            <path d="M32.355 66.082l.04.18.01-.002-.04-.18-.01.002"/>
        </g>
        <path d="M18.65 50.197l-.016-.073-.03.007.016.073.03-.007M21.163 49.64l-.017-.072-.03.006.016.074.03-.007M20.986 60.742l-.017-.073-.03.006.016.074.03-.007M23.498 60.185l-.016-.073-.031.007.016.073.03-.007M24.488 76.558l-.016-.073-.03.007.016.073.03-.007M27 76.002l-.015-.073-.031.007.016.073.03-.007M27.991 92.375l-.016-.073-.03.007.015.073.031-.007M30.503 91.819l-.016-.073-.03.006.016.074.03-.007M40.216 88.917l-.036.066.028.015.036-.066-.028-.015M37.955 87.689l-.036.066.028.015.036-.066-.028-.015M45.371 79.427l-.035.066.027.015.036-.066-.028-.015M43.11 78.199l-.035.066.027.015.036-.066-.028-.015M53.105 65.192l-.036.066.027.015.036-.066-.027-.015M50.843 63.964l-.035.066.027.014.036-.065-.028-.015M58.26 55.702l-.036.066.028.015.036-.066-.028-.015M55.999 54.474l-.036.065.028.015.036-.066-.028-.014M63.415 46.212l-.035.066.027.015.036-.066-.028-.015M61.154 44.983l-.035.066.027.015.036-.066-.028-.015M16.315 39.653l-.016-.073-.03.006.016.074.03-.007M18.828 39.096l-.017-.073-.03.007.016.073.03-.007M48.784 63.058l-1.802-.978.078-.144 1.802.979-.078.143M41.116 77.173l-1.801-.979.078-.143 1.801.978-.078.144M28.046 70.355l3.213-.712.043.196-3.212.711-.044-.195M28.565 72.698l3.212-.711.413.246-3.895.863.27-.398" stroke="#b4897d" fill="#b4897d" stroke-width=".08"/>
        <path d="M28.051 70.377l.514 2.321-.27.398-.585-2.643.341-.076M25.348 48.689l-2.343.519-.036-.16 2.344-.519.035.16M25.458 59.277l5.13-1.136.038.172-5.13 1.136-.038-.172M30.968 66.71l1.083-.24.033.15-1.084.24-.032-.15M49.385 51.221l4.617 2.508-.084.155-4.617-2.508.084-.154M26.39 62.181l4.491-.994.038.172-4.491.994-.038-.172M35.134 77.186l2.75-5.061.15.457-2.435 4.481-.465.123" stroke="#b4897d" fill="#b4897d" stroke-width=".08"/>
        <g stroke="#b4897d" fill="#b4897d" stroke-width=".08">
            <path d="M42.805 74.798l-2.063 3.796-.307-.167 1.905-3.506.465-.123M40.26 79.481l-.205.378-.15-.457.048-.088.307.167"/>
        </g>
        <path d="M40.802 74.085l-2.435 4.482-.263-.143 2.434-4.482.264.143" stroke="#b4897d" fill="#b4897d" stroke-width=".08"/>
        <g stroke="#b4897d" fill="#b4897d" stroke-width=".08">
            <path d="M35.6 77.063l.087.048-.157.29-.396-.215.465-.123M36.575 77.593l3.33 1.81.15.456-3.638-1.976.158-.29"/>
        </g>
        <path d="M37.884 72.125l4.92 2.673-.464.123-4.306-2.34-.15-.456M48.535 59.85l-2.434 4.482-.264-.144 2.434-4.481.264.143" stroke="#b4897d" fill="#b4897d" stroke-width=".08"/>
        <g stroke="#b4897d" fill="#b4897d" stroke-width=".08">
            <path d="M50.538 60.563l-.6 1.104-.308-.167.443-.814.465-.123M49.456 62.555l-1.668 3.069-.15-.457 1.51-2.78.308.168"/>
        </g>
        <g stroke="#b4897d" fill="#b4897d" stroke-width=".08">
            <path d="M43.333 62.828l.087.048-.157.29-.395-.215.465-.123M44.308 63.358l3.33 1.809.15.457-3.638-1.976.158-.29"/>
        </g>
        <path d="M45.617 57.89l4.92 2.673-.464.123-4.306-2.34-.15-.456" stroke="#b4897d" fill="#b4897d" stroke-width=".08"/>
        <g stroke="#b4897d" fill="#b4897d" stroke-width=".08">
            <path d="M31.777 71.987l-.114-.518.342-.076.185.84-.412-.246M31.343 70.024l-.22-.996.341-.075.22.995-.341.076M30.802 67.583l-.127-.576.27-.398.199.899-.342.075"/>
        </g>
        <path d="M27.462 67.719l.592 2.669-.342.075-.663-2.99.413.246" stroke="#b4897d" fill="#b4897d" stroke-width=".08"/>
        <path d="M30.675 67.007l-3.213.712-.413-.247 3.896-.863-.27.398M29.63 72.462l-.476-2.148.195-.043.476 2.148-.195.043M26.846 47.882l.005.003h0l.005.001h.006l.005-.004h0l.003-.005h0l.002-.005h0l-.001-.006h0l-.003-.005h0l-.005-.003h0-.001l-.005-.002-.005.001h0l-.006.003h0l-.003.005h0l-.001.006h0v.005h0l.004.005h0M26.893 48.027h-.001 0-.001 0-.001 0l-.001.001h0v.001h0v.001h0v.002h.004l.002-.001h0v-.002h0l-.001-.002h0-.001 0M26.91 48.111h.001l.001-.001h0v-.002h0v-.002h0-.002 0-.002 0l-.002.001h0v.001h0v.002h.001l.001.001h.001M26.934 48.277l.003.002.002.002H26.95l.003-.003h.002l.002-.004.001-.002v-.003l.001-.002v-.006l-.003-.003-.001-.002-.003-.002-.002-.001h-.002l-.004-.001h-.005l-.004.003-.001.001-.003.003v.002l-.001.004v.007l.003.004v.001M26.963 48.343h0-.002 0-.001 0v.001h-.001v.001h0v.002h0l.002.001h.003v-.002h0v-.002h0l-.001-.001M26.98 48.422h0-.001 0-.002 0v.001h0v.001h0v.002h0v.001h.005v-.001h0v-.001h0v-.002h0-.001v-.001M26.998 48.501h0-.001 0-.001 0-.001v.001h0l-.001.002h0v.001h0v.001H27v-.001h0v-.001h0v-.001h0v-.001h0-.001M27.014 48.586h.003v-.002h0v-.001h0v-.001h0v-.001h-.001 0-.001v-.001h-.001 0-.001 0l-.001.001h0v.002h0v.001h0v.001h.001l.001.001M27.043 48.673v-.002l.003-.003v-.011l-.002-.002-.002-.004h-.002l-.003-.003h-.011l-.002.002-.003.002-.001.002-.002.002v.003l-.001.003v.002l.001.004.001.002.002.003.002.001.003.002h.003l.003.001h.002l.003-.001.003-.001.003-.002M27.103 48.976h0-.001 0-.001 0-.001 0v.001h0l-.001.001h0v.002h.001v.001h.004v-.002h.001v-.001h0v-.002h-.001 0M27.109 49.068h0l.005.004h.011v-.001l.005-.003h0l.004-.005h0v-.006h0v-.005h-.001l-.003-.005h0l-.005-.003-.005-.001h0-.006v.001l-.005.003h0l-.003.005h0l-.002.005v.001l.002.005h0l.003.005M27.138 49.134h0-.001 0-.001 0-.001 0v.002h0-.001 0v.002h.001v.001h.004v-.001h0l.001-.001v-.001h0v-.002h-.001 0M27.175 49.294v-.001h0l-.002-.001h0-.002 0-.001 0v.002h0v.002h0l.001.002h.002l.001-.001h0v-.001l.001-.001v-.001M27.077 49.314h-.003 0l-.001.002h0v.003h.005v-.004h-.001M26.881 49.357h0-.002 0l-.002.002v.002l.001.001h.001l.001.001h.002l.001-.002v-.003h-.002M26.784 49.379h-.003 0l-.001.001v.002h0v.002h.004l.001-.001v-.002h0v-.002h-.001M45.46 61.43h0v-.001h-.001 0l-.001-.001h0-.001 0-.002 0v.001h0v.001h0v.002h0v.001h.004l.001-.001h0v-.001h0M45.717 60.943l.004.003h.001l.005.001h.006l.004-.003h.002l.002-.005h0l.002-.005v-.006h-.001l-.003-.005v-.001l-.005-.003h0-.002l-.004-.001h-.005 0l-.005.003v.001l-.003.004-.001.001v.005h-.001v.006l.004.004v.001M45.687 61.002h0v.002h0v.002h.004v-.001h.001v-.001h0v-.002h0-.002V61h0-.002 0M45.654 61.075v-.001h-.001v-.001h-.001 0l-.001-.001h0-.001 0-.001 0l-.001.002h0v.001h0v.001h0v.001h.001l.001.001h.002l.001-.002h0v-.001h0M45.615 61.146h0v-.002h-.001 0-.001 0-.002 0-.001 0v.001h-.001v.002h0v.001h.002v.001h.003v-.002h0v-.001M45.576 61.217h0v-.002h0-.001 0-.002 0-.002 0v.001h0v.001h0v.001h0v.002h.004v-.001h.001v-.001h0M45.524 61.3l.003.001.002.002H45.54l.003-.002.002-.002.002-.003.002-.002v-.011l-.002-.003-.002-.002-.003-.002-.002-.001h-.002l-.003-.001h-.006l-.003.002-.002.002-.002.003-.001.002-.001.003v.008l.002.003.002.002M45.498 61.358h0l-.001-.001h0-.001 0-.001 0-.001v.001h0l-.001.001h0v.001h0v.001h0l.001.001h.004v-.001h0v-.001h0v-.002h0M45.421 61.502V61.5h0V61.5h0-.001 0-.002 0-.001 0l-.001.001h0v.001h0v.001h0v.001h.001v.001h.003v-.001h.001v-.001h0V61.5M45.382 61.571h0-.001 0-.001 0-.001 0-.001 0l-.001.001h0v.001h0v.002h.001v.001h.004v-.001h0v-.001h0v-.001h0v-.001h0M45.352 61.655v-.001l.003-.004v-.002l.001-.004v-.005l-.002-.002-.002-.003-.002-.001-.003-.003h-.011l-.002.001-.004.003v.001l-.003.004v.011l.001.001.002.004.002.001.004.002h.001l.004.001h.006l.001-.002.004-.002M45.305 61.715h0v-.002h0-.001 0-.002 0-.002 0v.002h0v.002h0l.001.001h.003l.001-.001h0v-.002M45.267 61.786h0l-.001-.001h0l-.001-.001h0-.001 0-.001 0-.001 0l-.001.002h0v.001h0v.002h.005v-.001h0v-.002M45.227 61.856h0l-.002-.001h0-.001 0-.001v.001h0v.002h0v.001h0v.001h.001l.001.001h.002v-.001h0l.001-.001v-.001h0v-.001h0v-.001M45.19 61.928h0l-.001-.001h0-.001 0-.002 0-.002 0v.001h0v.001h0v.002h0l.001.001h.004v-.002h0v-.002" stroke="#b4897d" fill="#b4897d" stroke-width=".08"/>
        <g stroke="#b4897d" fill="#b4897d" stroke-width=".08">
            <path d="M45.167 62.064h.001l.001-.001.001-.001v-.003h0v.002h0v.002h-.002 0-.002 0l-.002-.001v-.002h0v.002h.001l.001.002h.001M45.17 62.059l-.002-.001h.001M45.167 62.058h0-.002.002M45.165 62.059h0"/>
        </g>
        <g stroke="#b4897d" fill="#b4897d" stroke-width=".08">
            <path d="M45.258 62.108h0v-.002h-.002 0-.002 0l-.002.001v.002h0v-.002h.001l.001-.001h.003l.001.001v.002h0M45.252 62.11h.001M45.253 62.11l.001.001h0M45.254 62.111h.003l.001-.001h0l-.002.001h0-.002"/>
        </g>
        <g stroke="#b4897d" fill="#b4897d" stroke-width=".08">
            <path d="M45.346 62.156h0v-.002h-.005v.001l-.001.001v.001h0v-.002h0l.002-.002h.002l.001.001v.001l.001.001v.001h0M45.34 62.157v.001h0M45.34 62.158l.002.001h-.001"/>
            <path d="M45.342 62.159h.003v-.002.002h-.003"/>
        </g>
        <path d="M38.389 75.39h0l-.001-.001h0-.001 0l-.002-.001h0-.002 0v.002h0v.002h0v.001h.001l.001.001h.002l.001-.002h0v-.001h0M38.294 75.528V75.539l.003.003v.002l.004.002.002.001.003.001h.008l.003-.003.002-.001.002-.004.001-.001v-.004l.001-.002v-.005l-.003-.004-.001-.001-.004-.003h-.001l-.002-.001H38.303l-.004.003h-.002l-.002.004v.002M38.272 75.604h0v-.001h0l-.001-.001h0-.001 0-.001 0-.001 0l-.001.001h0v.001h0v.001h0v.002h.005v-.001h0v-.001h0M38.229 75.674h0-.001v.001h0v.002h0l.001.001h.004v-.002h0v-.002h0l-.001-.001h0-.002 0-.001 0M38.192 75.75h.001l.001-.001h0v-.001h.001v-.001h0v-.001h0v-.001h-.001 0l-.002-.001h0-.001 0-.001v.001h0v.001h0v.002h0v.001h.002M38.156 75.816h-.001 0-.001 0-.001 0-.001 0-.001v.001h0v.001h0v.001h0v.001h.001l.001.001h.002l.001-.001h0v-.001h0v-.002h0v-.001M38.1 75.884v.011l.002.002.002.003.002.001.003.002h.003l.003.001h.005l.003-.002.002-.002.002-.002.002-.003v-.011l-.002-.002-.002-.003-.002-.002-.003-.002h-.011l-.002.002-.003.002-.001.002-.002.003M38.038 76.035h0l.001-.001h0l.001-.001h0v-.002h0v-.002h0-.001 0-.002 0-.001 0l-.001.002h0v.001h0v.001h0v.001h.003M37.999 76.106H38v-.001h0v-.001h0v-.001h0v-.001h0V76.1h0L38 76.1h0-.001 0-.001 0-.001v.001h-.001v.001h0v.001h0v.002h.002M37.962 76.172h0-.001v-.001h-.001 0-.002v.001h0v.002h0v.001h0v.001h.001l.001.001h.002v-.001h.001v-.002h0v-.001h0v-.001M37.908 76.24h0l-.002.005v.001l.002.005h0l.003.005h0l.005.003h0l.006.001h.005v-.002l.005-.002v-.001l.003-.004v-.001l.002-.005h0l-.002-.005v-.001l-.003-.004v-.001l-.005-.003h-.005 0-.006 0l-.005.004h0l-.003.005M37.844 76.39h.002l.001-.001h0v-.003h0l-.002-.001h0-.002 0-.001 0v.001h0v.002h0v.002h.002M37.806 76.462h0l.002-.001h0v-.001h0v-.002h0v-.001h0l-.001-.001h0-.002 0-.002 0v.002h0v.002h0l.001.002h.002M28.679 50.55l-1.103-4.98.27-.398 1.246 5.624-.413-.247" stroke="#b4897d" fill="#b4897d" stroke-width=".08"/>
        <path d="M27.576 45.57l-4.784 1.06-.413-.247 5.468-1.21-.27.397" stroke="#b4897d" fill="#b4897d" stroke-width=".08"/>
        <g stroke="#b4897d" fill="#b4897d" stroke-width=".08">
            <path d="M29.092 50.796l-.44.097-.07-.322.097-.022.413.247M27.667 51.112l-4.043.895.27-.398 3.701-.82.072.323"/>
        </g>
        <path d="M24.794 46.186l1.102 4.98-.293.065-1.102-4.98.293-.065" stroke="#b4897d" fill="#b4897d" stroke-width=".08"/>
        <g stroke="#b4897d" fill="#b4897d" stroke-width=".08">
            <path d="M22.792 46.63l.755 3.407-.342.076-.826-3.73.413.247M23.765 51.023l.13.586-.27.398-.202-.908.342-.076"/>
        </g>
        <path d="M42.867 62.95l2.75-5.06.15.456-2.434 4.482-.465.123" stroke="#b4897d" fill="#b4897d" stroke-width=".08"/>
        <g stroke="#b4897d" fill="#b4897d" stroke-width=".08">
            <path d="M48.21 53.574l-.025-.014-.014.027.024.013.014-.026M48.051 53.806l.025.014.014-.027-.024-.013-.015.026"/>
            <path d="M48.066 53.797l.01.005.118-.22-.008-.004-.12.22"/>
        </g>
        <g stroke="#b4897d" fill="#b4897d" stroke-width=".08">
            <path d="M52.85 56.095l-.024-.013-.014.026.025.014.014-.027M52.693 56.328l.024.013.015-.026-.025-.014-.014.027"/>
            <path d="M52.708 56.319l.009.005.119-.22-.009-.005-.12.22"/>
        </g>
        <g stroke="#b4897d" fill="#b4897d" stroke-width=".08">
            <path d="M48.13 53.53l-.024-.013-.014.027.024.013.014-.026M47.972 53.764l.025.013.014-.026-.024-.014-.015.026"/>
            <path d="M47.987 53.755l.01.004.118-.22-.008-.004-.12.22"/>
        </g>
        <g stroke="#b4897d" fill="#b4897d" stroke-width=".08">
            <path d="M30.021 55.455l-.027.006.007.03.027-.007-.007-.029M30.055 55.735l.027-.006-.006-.03-.028.006.007.03"/>
            <path d="M30.06 55.718l.01-.002-.054-.244-.01.002.054.244"/>
        </g>
        <g stroke="#b4897d" fill="#b4897d" stroke-width=".08">
            <path d="M48.366 53.227l.025.013.014-.026-.024-.014-.015.026"/>
            <path d="M48.381 53.218l.01.004.465-.856-.01-.005-.465.857"/>
            <path d="M48.847 52.36l.009.006.258-.477-.008-.005-.26.477"/>
            <path d="M49.105 51.885l.01.004.254-.468-.009-.005-.255.469"/>
        </g>
        <g stroke="#b4897d" fill="#b4897d" stroke-width=".08">
            <path d="M36.577 70.461l.172-.313-.042-.022-.051-.028-.167.304-.013.025-.007.014-.005.011-.013.03-.007.02h0l.07.038.007.004h0l.012-.015.017-.024.007-.01.006-.011.014-.023M37.157 69.406l.172-.313.011-.024.006-.012.005-.01.01-.027.007-.016v-.002l-.058-.032-.019-.01-.001.001-.011.014-.019.027-.007.01-.008.014-.014.024-.167.305.052.028.04.023"/>
            <path d="M36.749 70.148l.414-.754-.043-.025-.05-.026-.414.755.051.028.042.022"/>
        </g>
        <g stroke="#b4897d" fill="#b4897d" stroke-width=".08">
            <path d="M36.173 68.458l-.172.314.041.021.052.03.167-.305.013-.025.007-.014.005-.012.013-.03.006-.016v-.003l-.018-.01-.058-.032-.002.002-.01.013-.017.024-.007.01-.006.01-.014.023M35.594 69.514l-.172.313-.012.024-.006.011-.005.01-.01.028-.007.018h0l.007.004.07.039h0l.012-.016.019-.027.007-.01.008-.014.014-.025.167-.304-.052-.028-.04-.023"/>
            <path d="M36.008 68.76l-.414.754.04.023.052.028.415-.755-.049-.027-.044-.023"/>
        </g>
        <g stroke="#b4897d" fill="#b4897d" stroke-width=".08">
            <path d="M36.704 68.75l-.172.313.042.022.051.03.167-.305.013-.026.007-.013.005-.012.013-.03.006-.017v-.002l-.018-.01-.058-.032-.002.001-.01.014-.017.024-.006.009-.007.011-.014.023M36.125 69.806l-.172.313-.012.023-.006.012-.004.01-.011.028-.007.018h0l.007.004.07.038h0l.012-.016.019-.027.007-.01.008-.013.015-.025.166-.304-.051-.028-.041-.023"/>
            <path d="M36.539 69.052l-.414.754.04.023.053.028.414-.755-.049-.027-.044-.023"/>
        </g>
        <path d="M39.332 62.824l-.082.054-.315.209-.23.152-.22.145-.357.236-.073.049-.207.137.066.068.05.047.174-.115.107-.071.397-.263.5-.331.105-.069.048-.032.122-.08-.056-.09-.03-.046M38.584 61.328l-.161.107-.465.307-.855.566-.207.137-.035.023-.136.09.085.09.028.027.09-.06.024-.015.134-.089.895-.592.424-.28.249-.165-.053-.107-.017-.039M37.823 63.709l.002.003.056-.038.025-.016.016.024.034.052.006-.004.003-.002-.017-.025-.036-.055-.027.018-.062.041v.002" stroke="#b4897d" fill="#b4897d" stroke-width=".08"/>
        <path d="M37.8 63.733l.016.022.02-.013.006-.005-.005-.008-.014-.022-.008.005-.02.013.006.008M36.922 62.735l.053-.035.05-.033-.026-.04-.027-.04-.005.003-.006.004.025.038.026.038-.048.031-.045.03.002.002v.002M37.793 63.727l-.58-.578-.325-.392" stroke="#b4897d" fill="#b4897d" stroke-width=".08"/>
        <path d="M36.89 62.755l.018-.01.014-.01-.01-.016-.01-.014-.017.011-.014.01.011.016.009.013M40.483 62.048h0l-.002.001h0l-.001.002h-.001 0l-.002.001h0l-.001.002h0-.002v.002h-.001l-.001.001h0l-.001.002h0l-.001.001h0l-.001.001h0l-.001.002h0v.001l-.001.001h0v.001h0v.002h0l-.001.001h0v.001h0v.002h0l.001.001h0v.001h.001v.001h.001v.001h0l.002.001h0v.001h.002v.001h.003v.001h.003l.002.001H40.508l.002-.001h.003l.003-.001h.002v-.001h.003l.002-.001h0l.003-.001h0l.002-.001h.002l.002-.002h.003l.002-.002h.002l.002-.001h0l.003-.001h0l.002-.001.001-.001h.002v-.001h.002v-.001l.002-.001h0l.001-.001h0l.002-.001h0l.001-.001h0l.002-.001h0l.001-.002h.002v-.002h.001v-.001h.001v-.001h.001v-.002h.001v-.002h.001v-.001h0v-.002h0v-.001h0v-.001h0v-.001h0v-.001h0v-.001h0v-.001h-.001v-.001h0l-.001-.001h0-.001v-.001h-.001 0l-.001-.001h0-.001l-.001-.001h0-.001l-.001-.001h0-.002 0l-.002-.001h0-.002 0-.002v-.001h-.004 0-.002 0-.002 0-.002 0-.003 0-.002 0-.003 0-.003 0-.002 0-.003 0-.003 0l-.002.001h0-.003 0l-.002.001h0l-.003.001h0-.003 0l-.002.002h0-.003l-.002.001h0l-.002.001h0l-.002.001h-.001l-.002.001h0l-.002.001h0l-.002.001h0l-.002.001h0l-.001.001h-.001l-.001.001h0l-.002.001M39.663 60.87H39.682l.002-.001h.002v-.001h.002l.002-.001h0l.002-.001h0l.002-.001h.002v-.001h.002v-.001h.002l.001-.001h.001l.001-.001h0l.002-.001.001-.001h0l.002-.001h0l.002-.001h0l.002-.002h.002v-.001l.001-.001h.001v-.001l.002-.001h0l.002-.002h.001l.001-.002h.001v-.001l.002-.001h0l.001-.002h.001v-.001h.002v-.002h.001v-.001l.002-.001v-.001l.001-.001h0l.001-.001v-.001l.002-.001v-.001h0v-.002h.001v-.001h.001v-.002h0l.001-.001h0v-.002h.001v-.001h0v-.002h0l.001-.001h0v-.001h0v-.002h0v-.001h0v-.001h0v-.001h0v-.001h-.001 0v-.001h0l-.001-.001h0v-.001h-.001 0l-.001-.001h0-.001 0l-.001-.001h0-.001 0l-.002-.001h0-.002 0-.002 0-.002 0-.002 0-.002 0-.002 0-.003 0-.002v.001h-.002 0l-.002.001h0-.002v.001h-.002 0l-.002.001h-.001l-.001.001h-.001l-.001.001H39.7l-.001.001h-.001l-.001.001h-.001l-.001.001h-.001l-.001.001-.001.001h-.001l-.001.001h-.001v.001h-.002l-.001.002h0-.002v.001h-.001l-.001.002h-.002v.001l-.001.001h0l-.002.002h0l-.002.001h0l-.002.002h0l-.001.001h0l-.002.002h0l-.002.002h0v.001h-.001l-.001.002h0l-.002.002h0v.001h-.001l-.001.002h0l-.001.002h0l-.001.001h0v.002h0l-.002.001h0v.002h0v.001h0l-.001.002h0v.002h0v.001h0v.002h0v.002h0v.002h.001v.001h.001l.001.002h.002l.001.001M38.664 61.43l.03-.019.006-.005.17-.112.027-.018.078-.051.02-.014.072-.047.027-.018.066-.043.032-.022.06-.04.04-.026.054-.036.046-.03.05-.033.052-.035.045-.03.059-.038.04-.027.065-.043.037-.024.07-.046.073-.05.034-.021.03-.02.079-.053.081-.054.029-.018.084-.056.026-.017.087-.058.024-.016.09-.059.021-.014.091-.06.021-.014.093-.061.02-.013.093-.062.019-.013.01-.006.093-.062.01-.006.008-.006.095-.063.01-.006.047-.031.009-.006.047-.032.009-.006.11-.072.035-.024.11-.072.023-.016.11-.073.023-.014.11-.073-.01-.015-.124.083-.023.015-.125.083-.022.015-.035.023-.191.126-.01.006-.047.032-.009.005-.047.032-.01.006-.047.031-.009.006-.047.032-.009.006-.047.03-.01.007-.046.031-.02.013-.093.062-.092.06-.02.014-.02.014-.091.06-.023.015-.089.06-.023.015-.088.058-.084.056-.026.017-.028.02-.081.053-.078.052-.03.02-.075.05-.033.022-.07.046-.037.025-.04.027-.065.043-.045.03-.058.038-.05.034-.052.034-.055.037-.045.03-.062.04-.038.025-.068.046-.03.02-.075.05-.024.015-.081.054-.017.01-.027.018-.17.113-.036.023.007.01v.001M39.374 62.837l.007.01.44-.29.086-.057.052-.035.031-.02.04-.026.034-.023.036-.024.039-.025.032-.022.043-.028.03-.019.022-.013.014-.009.023-.013.014-.007.025-.013.013-.007.026-.012.012-.006.028-.011.012-.005.012-.005.029-.01.03-.01.012-.004.01-.003.032-.009.01-.002.033-.008.01-.002.034-.007.01-.002.034-.005.01-.001.035-.004.01-.001.035-.003.037-.001H40.871l.037.002h.008l.038.003h.008l.038.006h.008l.038.007.007.002.038.008.007.001.038.01.007.002.037.011.007.002.037.013.007.003.036.014.006.003.036.016.006.003.035.017.007.003.007.004h.002l.007.005h.001l.008.005.007.004.005.002.031.017.005.002.009.005.066.036.008-.015-.066-.035-.01-.005-.004-.003-.03-.017-.005-.002-.008-.004-.007-.004-.002-.001-.007-.004-.002-.001-.007-.004-.036-.018-.006-.003-.036-.016-.007-.003-.037-.015-.007-.002-.037-.013-.007-.003-.038-.011-.007-.002-.007-.002-.038-.01-.007-.002-.039-.008-.007-.001-.039-.007-.038-.005-.008-.001h-.008l-.038-.004h-.009l-.038-.002h-.092l-.01.002-.036.002-.01.002-.036.004-.01.001-.035.006-.01.002-.035.007-.01.002-.033.008-.011.003-.032.01-.012.003-.03.01-.013.005-.03.01-.011.006-.029.011-.012.006-.027.013-.025.013-.014.006-.013.008-.024.013-.014.009-.023.014-.03.02-.042.027-.04.026-.031.021-.036.024-.035.023-.031.02-.039.026-.053.035-.086.058-.126.083-.313.207.002.003" stroke="#b4897d" fill="#b4897d" stroke-width=".08"/>
        <path d="M39.521 62.723l-.002-.003v-.001l-.097.063-.08.054.017.027.007.01.117-.077.06-.04-.003-.005-.002-.004-.007.005-.005.003.002.002v.002l-.05.032-.1.061-.002-.003-.01-.017.1-.071.055-.038M38.852 61.271l-.08.052-.15.1.012.019.013.019.15-.1.08-.052-.001-.002-.002-.003-.128.081-.081.051-.008-.01-.006-.01.074-.051.114-.08.003.003v.002l.012-.008.004-.002-.005-.007-.001-.002" stroke="#b4897d" fill="#b4897d" stroke-width=".08"/>
        <g stroke="#b4897d" fill="#b4897d" stroke-width=".08">
            <path d="M53.27 44.032l-.473.87.008.004.473-.87-.009-.004M52.797 44.902l-.473.87.009.004.472-.87-.008-.004"/>
            <path d="M52.324 45.772l-.472.87.008.004.473-.87-.009-.005M51.428 47.402l.025.013.014-.026-.024-.014-.015.027"/>
            <path d="M51.852 46.641l-.409.752.01.005.407-.752-.008-.005"/>
        </g>
        <path d="M53.745 43.974l4.043 2.196-.084.154-4.043-2.195.084-.155M51.162 48.73l4.042 2.195-.072.134-4.042-2.196.072-.133" stroke="#b4897d" fill="#b4897d" stroke-width=".08"/>
        <g stroke="#b4897d" fill="#b4897d" stroke-width=".08">
            <path d="M54.862 52.374l-.009-.005-.477.879.009.004.477-.878M54.08 53.772l.025.014.015-.027-.025-.013-.014.026"/>
            <path d="M54.385 53.252l-.01-.004-.28.515.01.005.28-.516"/>
        </g>
        <g stroke="#b4897d" fill="#b4897d" stroke-width=".08">
            <path d="M50.708 48.786l-.024-.014-.015.027.025.013.014-.026"/>
            <path d="M50.684 48.79l-.465.857.009.004.465-.856-.009-.005"/>
            <path d="M50.219 49.647l-.473.87.01.004.472-.87-.01-.004M49.746 50.517l-.472.87.008.004.473-.87-.009-.004"/>
            <path d="M49.274 51.386l-.473.87.009.005.472-.87-.008-.005"/>
            <path d="M48.801 52.256l-.253.466.009.005.253-.466-.009-.005M48.287 53.184l.025.013.014-.027-.024-.013-.015.027"/>
            <path d="M48.548 52.722l-.246.453.01.004.245-.452-.009-.005"/>
        </g>
        <g stroke="#b4897d" fill="#b4897d" stroke-width=".08">
            <path d="M20.483 37.319l.216.976.01-.002-.216-.976-.01.002"/>
            <path d="M20.7 38.295l.214.967.01-.002-.215-.967-.01.002"/>
            <path d="M20.914 39.262l.149.673.01-.002-.15-.673-.01.002"/>
        </g>
        <path d="M20.775 38.549l5.218-1.156.033.148-5.218 1.156-.033-.148M20.552 35.82l4.491-.994.038.172-4.491.994-.038-.172M21.72 41.093l4.49-.995.039.172-4.491.994-.038-.172" stroke="#b4897d" fill="#b4897d" stroke-width=".08"/>
        <g stroke="#b4897d" fill="#b4897d" stroke-width=".08">
            <path d="M25.734 36.155l-.01.002.216.977.01-.003-.216-.976"/>
            <path d="M25.95 37.131l-.01.003.214.966.01-.002-.214-.967M26.164 38.098l-.01.002.15.674.01-.002-.15-.674"/>
        </g>
        <g stroke="#b4897d" fill="#b4897d" stroke-width=".08">
            <path d="M27.477 44.056l.01-.002-.216-.977-.01.002.216.977"/>
            <path d="M27.261 43.08l.01-.003-.214-.966-.01.002.214.966"/>
            <path d="M27.047 42.113l.01-.002-.214-.967-.01.002.214.967M26.661 40.283l-.027.006.006.03.028-.007-.007-.03"/>
            <path d="M26.833 41.146l.01-.002-.187-.845-.01.003.187.844"/>
        </g>
        <g stroke="#b4897d" fill="#b4897d" stroke-width=".08">
            <path d="M26.087 62.533l-.027.006.006.03.027-.006-.006-.03"/>
            <path d="M26.072 62.552l.21.952.01-.002-.21-.952-.01.002M26.282 63.504l.214.967.01-.002-.214-.967-.01.002"/>
            <path d="M26.496 64.47l.215.967.01-.002-.215-.966-.01.002"/>
            <path d="M26.71 65.437l.214.967.01-.002-.214-.967-.01.002"/>
            <path d="M26.924 66.404l.116.522.01-.002-.116-.522-.01.002M27.147 67.45l.027-.006-.006-.029-.027.006.006.03"/>
            <path d="M27.04 66.926l.113.508.01-.002-.113-.508-.01.002"/>
        </g>
        <g stroke="#b4897d" fill="#b4897d" stroke-width=".08">
            <path d="M26.175 62.514l-.028.006.007.03.027-.007-.006-.03"/>
            <path d="M26.16 62.533l.21.952.01-.002-.21-.952-.01.002"/>
            <path d="M26.37 63.485l.214.966.01-.002-.214-.966-.01.002"/>
            <path d="M26.584 64.451l.214.967.01-.002-.214-.967-.01.002M26.798 65.418l.214.966.01-.002-.214-.966-.01.002M27.012 66.384l.116.523.01-.002-.116-.523-.01.002M27.235 67.431l.027-.006-.006-.03-.027.007.006.029"/>
            <path d="M27.128 66.907l.113.507.01-.002-.113-.507-.01.002"/>
        </g>
        <g stroke="#b4897d" fill="#b4897d" stroke-width=".08">
            <path d="M24.92 57.261l-.028.006.006.03.028-.007-.007-.029"/>
            <path d="M24.904 57.28l.21.952.01-.002-.21-.952-.01.002M25.115 58.232l.214.966.01-.002-.214-.966-.01.002M25.343 59.303l.027-.006-.007-.03-.027.006.007.03"/>
            <path d="M25.329 59.198l.02.088.009-.002-.02-.088-.01.002"/>
        </g>
        <g stroke="#b4897d" fill="#b4897d" stroke-width=".08">
            <path d="M25.007 57.242l-.027.006.006.029.028-.006-.007-.03"/>
            <path d="M24.992 57.26l.21.952.01-.002-.21-.952-.01.002M25.203 58.212l.214.967.01-.002-.215-.967-.01.002M25.43 59.283l.028-.006-.007-.03-.027.007.006.03"/>
            <path d="M25.417 59.179l.02.087.009-.002-.02-.087-.01.002"/>
        </g>
        <g stroke="#b4897d" fill="#b4897d" stroke-width=".08">
            <path d="M24.81 56.896l.027-.006-.006-.03-.028.007.007.03M24.777 56.617l-.028.006.007.03.027-.006-.006-.03"/>
            <path d="M24.761 56.636l.054.244.01-.003-.054-.243-.01.002"/>
        </g>
        <g stroke="#b4897d" fill="#b4897d" stroke-width=".08">
            <path d="M24.898 56.877l.027-.006-.007-.03-.027.006.007.03M24.864 56.598l-.027.006.007.03.027-.007-.006-.03"/>
            <path d="M24.85 56.617l.053.243.01-.002-.054-.243-.01.002"/>
        </g>
        <g stroke="#b4897d" fill="#b4897d" stroke-width=".08">
            <path d="M32.154 65.133l-.216-.976-.01.002.217.976.01-.002"/>
            <path d="M31.938 64.157l-.214-.967-.01.002.215.967.01-.002"/>
            <path d="M31.724 63.19l-.214-.967-.01.003.215.966.01-.002M31.33 61.372l-.026.006.006.03.027-.007-.006-.029"/>
            <path d="M31.51 62.223l-.185-.834-.01.002.185.835.01-.003"/>
        </g>
        <g stroke="#b4897d" fill="#b4897d" stroke-width=".08">
            <path d="M30.587 58.139l.027-.006-.006-.03-.027.007.006.029"/>
            <path d="M30.408 57.244l-.01.002.195.876.01-.002-.195-.876"/>
        </g>
        <g stroke="#b4897d" fill="#b4897d" stroke-width=".08">
            <path d="M50.787 48.829l-.024-.014-.015.027.025.013.014-.026"/>
            <path d="M50.763 48.833l-.465.857.009.004.465-.856-.009-.005"/>
            <path d="M50.298 49.69l-.473.87.01.004.472-.87-.009-.004"/>
            <path d="M49.825 50.56l-.374.689.009.005.374-.69-.009-.005"/>
        </g>
        <g stroke="#b4897d" fill="#b4897d" stroke-width=".08">
            <path d="M22.477 46.361l.027-.006-.006-.029-.028.006.007.03"/>
            <path d="M22.482 46.345l.01-.002-.21-.952-.01.002.21.952M22.271 45.393l.01-.002-.214-.967-.01.002.214.967M22.057 44.426l.01-.002-.214-.966-.01.002.214.966"/>
            <path d="M21.843 43.46l.01-.002-.214-.967-.01.002.214.967"/>
            <path d="M21.63 42.493l.009-.002-.116-.522-.01.002.116.522M21.416 41.444l-.027.006.007.03.027-.006-.007-.03"/>
            <path d="M21.514 41.97l.01-.001-.113-.508-.01.002.113.508"/>
        </g>
        <g stroke="#b4897d" fill="#b4897d" stroke-width=".08">
            <path d="M22.565 46.342l.027-.006-.007-.03-.027.007.007.029"/>
            <path d="M22.57 46.325l.01-.002-.21-.952-.01.002.21.952M22.36 45.373l.01-.002-.215-.966-.01.002.214.966"/>
            <path d="M22.145 44.407l.01-.002-.214-.967-.01.002.214.967"/>
            <path d="M21.931 43.44l.01-.002-.214-.967-.01.003.214.966"/>
            <path d="M21.717 42.474l.01-.002-.116-.523-.01.002.116.523M21.504 41.425l-.027.006.006.03.028-.007-.007-.03"/>
            <path d="M21.601 41.951l.01-.002-.112-.508-.01.003.112.507"/>
        </g>
        <g stroke="#b4897d" fill="#b4897d" stroke-width=".08">
            <path d="M30.988 59.86l-.216-.976-.01.002.216.977.01-.002M30.653 58.309l-.027.006.006.03.028-.007-.007-.03"/>
            <path d="M30.772 58.884l-.124-.559-.01.002.124.56.01-.003"/>
        </g>
        <path d="M30.615 58.134l.038.174-.027.006-.039-.174.028-.006M25.38 59.472l-.037-.168.027-.006.038.168-.028.006" stroke="#b4897d" fill="#b4897d" stroke-width=".08"/>
        <path d="M25.408 59.466l-.038-.168.088-.019.038.168-.088.02" stroke="#b4897d" fill="#b4897d" stroke-width=".08"/>
        <g stroke="#b4897d" fill="#b4897d" stroke-width=".08">
            <path d="M25.977 62.168l.028-.006-.007-.03-.027.007.006.03"/>
            <path d="M25.983 62.152l.01-.002-.211-.953-.01.003.21.952"/>
            <path d="M25.772 61.2l.01-.003-.214-.966-.01.002.214.967M25.408 59.467l-.027.007.006.029.027-.006-.006-.03"/>
            <path d="M25.558 60.233l.01-.002-.166-.747-.01.002.166.747"/>
        </g>
        <g stroke="#b4897d" fill="#b4897d" stroke-width=".08">
            <path d="M26.065 62.149l.027-.006-.006-.03-.027.007.006.029"/>
            <path d="M26.07 62.132l.01-.002-.21-.952-.01.002.21.952"/>
            <path d="M25.86 61.18l.01-.002-.214-.966-.01.002.214.966M25.496 59.449l-.027.006.006.03.027-.007-.006-.03"/>
            <path d="M25.646 60.214l.01-.002-.166-.747-.01.003.166.746"/>
        </g>
        <path d="M26.023 37.403l.026.117-.027.006-.026-.117.027-.006M20.777 38.687l-.026-.117.028-.006.026.117-.028.006M49.278 51.361l.082-.151.024.013-.082.151-.024-.013M54.105 53.788l-.082.15-.025-.013.082-.15.025.013" stroke="#b4897d" fill="#b4897d" stroke-width=".08"/>
        <path d="M54.08 53.774l-.082.151-.08-.043.083-.15.079.042" stroke="#b4897d" fill="#b4897d" stroke-width=".08"/>
        <g stroke="#b4897d" fill="#b4897d" stroke-width=".08">
            <path d="M54.022 53.938l-.024-.013-.015.027.025.013.014-.027"/>
            <path d="M53.583 54.729l.424-.782-.009-.004-.424.78.009.006"/>
        </g>
        <path d="M51.791 56.791l.232-.426.093.05-.232.427-.093-.05M47.11 56.209l-.094-.05.232-.427.093.05-.232.427M47.932 54.695l-.093-.051.231-.426.093.05-.231.427M50.914 58.405l.232-.426.093.05-.232.427-.093-.05M47.059 56.69l.975.53.06-.11-.976-.53-.06.11M47.93 53.756l-1.428 2.63-.082.025 1.458-2.684.053.029M52.57 56.783l.212-.391.016.009-.212.39-.015-.008" stroke="#b4897d" fill="#b4897d" stroke-width=".08"/>
        <g stroke="#b4897d" fill="#b4897d" stroke-width=".08">
            <path d="M48.003 57.27l-.975-.53-.608-.33.082-.023.555.301.975.53.562.305-.029.053-.562-.305.029-.053M47.028 56.74l.029-.052M49.481 58.005l1.873 1.018-.013.06-1.888-1.025.028-.053"/>
        </g>
        <g stroke="#b4897d" fill="#b4897d" stroke-width=".08">
            <path d="M50.942 58.784l-1.454-.79.013-.024.034-.064 1.378.749.029.129M48.6 57.512l-.552-.3.14-.038.46.25-.035.064-.013.024"/>
        </g>
        <path d="M46.961 56.622l-.442-.24.113-.034.296.161.033.113M51.354 59.023l.219-.403.016.008-.248.456.013-.061" stroke="#b4897d" fill="#b4897d" stroke-width=".08"/>
        <g stroke="#b4897d" fill="#b4897d" stroke-width=".08">
            <path d="M49.572 57.926l.03-.055.092.05-.03.055-.092-.05M49.989 57.159l.485-.892.09.05-.484.892-.091-.05M50.86 55.555l.03-.053.09.05-.028.053-.092-.05"/>
        </g>
        <path d="M50.913 58.655l1.37-2.52.076.041-1.417 2.608-.029-.13M48.11 57.1l-1.325-.72.118-.035 1.248.678-.042.077M51.349 59.005l-.407-.221.04-.073.333.181.034.113" stroke="#b4897d" fill="#b4897d" stroke-width=".08"/>
        <path d="M46.785 56.38l1.362-2.507.018.149-1.262 2.324-.118.034M46.52 56.382l1.422-2.62.034.113-1.344 2.473-.113.034" stroke="#b4897d" fill="#b4897d" stroke-width=".08"/>
        <g stroke="#b4897d" fill="#b4897d" stroke-width=".08">
            <path d="M51.315 58.892l.169-.31.073.04-.208.383-.034-.113M52.49 56.729l.17-.31.112-.033-.208.382-.073-.04"/>
        </g>
        <g stroke="#b4897d" fill="#b4897d" stroke-width=".08">
            <path d="M48.048 57.212l.133-.244.092.05-.086.156-.139.038M48.568 56.256l.43-.79.09.049-.429.79-.091-.05M49.384 54.753l.029-.053.091.05-.029.053-.091-.05"/>
        </g>
        <path d="M51.545 57.492l-1.25-.68.064-.117 1.25.68-.064.117M48.728 55.962l-1.248-.678.064-.118 1.248.678-.064.118M51.517 58.061l.62-1.142.194.105-.621 1.142-.193-.105M52.365 56.165l.407.22-.113.034-.334-.181.04-.073M48.147 53.873l4.141 2.25-.058.107-4.065-2.208-.018-.149M47.942 53.762l.205.111-.04.073-.131-.071-.034-.113M25.25 56.12l-.103.023-.105-.474.103-.022.105.473M24.86 54.356l-.104.023-.105-.474.104-.023.105.474M29.183 53.515l-.105-.474.104-.023.105.474-.104.023M29.55 55.168l-.106-.474.104-.022.105.473-.104.023M24.537 54.535l.28 1.27-.214.047-.281-1.27.215-.047M24.57 56.193l.1.448-.018.003-.1-.447.018-.004M24.019 53.705l.1.447-.018.004-.113-.506.03.055M27.73 53.027l1.47-.326-.066.104-1.386.307-.019-.085" stroke="#b4897d" fill="#b4897d" stroke-width=".08"/>
        <g stroke="#b4897d" fill="#b4897d" stroke-width=".08">
            <path d="M29.41 52.51l-.519.116-1.183.262-.621.137-.013-.058.62-.138 1.184-.262.578-.128-.046.072M28.878 52.567l.013.059M27.695 52.83l.013.058M26.1 53.244l-2.081.46-.03-.054 2.098-.465.014.059"/>
        </g>
        <path d="M30.058 55.434l-.648-2.923.046-.072.66 2.982-.058.013M24.88 54.985l1.387-.307.03.13-1.389.308-.029-.131M24.034 53.715l.453-.1.017.08-.37.083-.1-.063M30.045 55.437l-.228.05-.017-.081.146-.032.099.063M29.2 52.701l.617 2.786-.118-.133-.565-2.549.067-.104" stroke="#b4897d" fill="#b4897d" stroke-width=".08"/>
        <path d="M24.593 53.693l.59 2.66-.052.172-.645-2.91.107.078" stroke="#b4897d" fill="#b4897d" stroke-width=".08"/>
        <g stroke="#b4897d" fill="#b4897d" stroke-width=".08">
            <path d="M26.083 53.363l.014.062-.102.022-.014-.061.102-.023M26.272 54.216l.213.961-.102.023-.213-.962.102-.022M26.66 55.968l.012.056-.101.022-.013-.055.102-.023"/>
        </g>
        <path d="M29.4 52.526l.645 2.91-.099-.062-.609-2.749.063-.099" stroke="#b4897d" fill="#b4897d" stroke-width=".08"/>
        <path d="M28.91 52.635l.49-.109-.063.1-.329.072-.099-.063M29.817 55.487l-4.686 1.038.051-.171 4.517-1 .118.133M25.131 56.525l-.452.1.063-.099.371-.082.018.08" stroke="#b4897d" fill="#b4897d" stroke-width=".08"/>
        <g stroke="#b4897d" fill="#b4897d" stroke-width=".08">
            <path d="M24.486 53.614l1.617-.358.006.027.016.071-1.532.34-.107-.08M27.09 53.038l.612-.136-.08.12-.511.114-.016-.072-.006-.026"/>
        </g>
        <g stroke="#b4897d" fill="#b4897d" stroke-width=".08">
            <path d="M24.133 53.778l.077.344-.081.018-.095-.425.1.063M24.666 56.182l.076.344-.063.099-.094-.425.08-.018"/>
        </g>
        <g stroke="#b4897d" fill="#b4897d" stroke-width=".08">
            <path d="M27.702 52.902l.06.272-.102.023-.038-.175.08-.12M27.937 53.965l.188.85-.102.022-.188-.85.102-.022M28.3 55.605l.043.195-.101.023-.043-.196.101-.022"/>
        </g>
        <path d="M28.01 54.292l1.386-.307.029.13-1.387.308-.029-.131M28.91 52.635l-1.208.267.017.081 1.208-.267-.018-.081M22.91 35.478l.548 2.476-.148.033-.549-2.476.149-.033M23.49 38.103l.55 2.476-.15.033-.547-2.476.148-.033M35.503 45.013l-4.719 3.89.014.017 4.718-3.89-.013-.017M35.503 45.013a.873.873.22 0 0 .29-.858l.02-.005a.894.894.22 0 1-.296.879l-.014-.016" stroke="#b4897d" fill="#b4897d" stroke-width=".08"/>
        <path d="M35.608 43.326l.185.829.02-.005-.185-.828-.02.004M30.456 49.858l4.337 19.643.02-.004-4.337-19.643-.02.004" stroke="#b4897d" fill="#b4897d" stroke-width=".08"/>
        <path d="M30.784 48.904a.967.967-2.924 0 0-.328.954l.02-.004a.946.946-2.924 0 1 .322-.934l-.014-.016M41.472 62.308l-4.547 8.375-.019-.01 4.548-8.375.018.01M44.028 57.602l8.753-16.114-.018-.01-8.754 16.114.019.01" stroke="#b4897d" fill="#b4897d" stroke-width=".08"/>
        <path d="M52.78 41.488a4.967 4.967-.07 0 0 .59-2.024l-.02-.001a4.946 4.946-.07 0 1-.588 2.015l.019.01M42.737 74.756l-4.763-2.588-.002.004 4.762 2.588.003-.004M35.209 69.714l-.433-.235.01-.018.433.235-.01.018M36.97 70.67l-.164-.09.01-.018.164.09-.01.018M28.937 52.76l-.028-.125.1.063.009.044-.081.018M27.695 52.819l1.181-.262.05.225-1.181.262-.05-.225M47.022 56.51l-.06.112-.034-.113.021-.04.073.04M47.997 57.278l-1.063-.577.11-.202 1.063.577-.11.202" stroke="#b4897d" fill="#b4897d" stroke-width=".08"/>
        <path d="M35.209 69.714l.136.074.01-.018-.136-.074-.01.018M36.666 70.505l.14.076.01-.019-.14-.075-.01.018M43.385 58.304l-1.722 1.14-.012-.018 1.722-1.14.012.018M37.933 83.765l-.14.257-.033-.112.1-.185.073.04M34.525 81.913l.744-1.369.072.139-.66 1.216-.156.014M35.262 82.092l.425.233-.05.093-.426-.233.05-.093" stroke="#b4897d" fill="#b4897d" stroke-width=".08"/>
        <g stroke="#b4897d" fill="#b4897d" stroke-width=".08">
            <path d="M36.482 81.302l-.057-.03.05-.092.056.031-.05.091M35.713 80.885l-.3-.163.127-.05.223.121-.05.092"/>
        </g>
        <path d="M39.266 81.313l-1.333 2.452-.072-.139 1.243-2.288.162-.025" stroke="#b4897d" fill="#b4897d" stroke-width=".08"/>
        <path d="M37.933 83.765l-3.408-1.852.156-.014 3.18 1.727.072.139M34.385 82.17l.14-.257.073.04-.1.184-.113.034M35.269 80.544l.588-1.083.033.112-.549 1.011-.072-.04M37.156 80.28l-1.243 2.288-.092-.05 1.243-2.288.092.05" stroke="#b4897d" fill="#b4897d" stroke-width=".08"/>
        <g stroke="#b4897d" fill="#b4897d" stroke-width=".08">
            <path d="M39.104 81.338l-1.025-.556.048-.088 1.139.619-.162.025M37.191 80.3l-.184-.1.048-.088.184.1-.047.088M36.12 79.717l-.047-.025-.03-.13.124.067-.047.088"/>
        </g>
        <path d="M36.004 79.635l-.114-.062-.033-.112.187.101-.04.073M35.414 80.722l-.073-.04-.072-.138.186.102-.041.076M37.793 84.022l-3.408-1.851.113-.034 3.262 1.773.033.112" stroke="#b4897d" fill="#b4897d" stroke-width=".08"/>
        <path d="M35.414 80.722l.63-1.16.029.13-.533.98-.126.05" stroke="#b4897d" fill="#b4897d" stroke-width=".08"/>
        <path d="M35.27 80.518l.528-.971.202.11-.528.97-.202-.11M43.385 58.304a1.967 1.967-.498 0 0 .643-.702l-.019-.01a1.946 1.946-.498 0 1-.636.694l.012.018" stroke="#b4897d" fill="#b4897d" stroke-width=".08"/>
        <g stroke="#b4897d" fill="#b4897d" stroke-width=".08">
            <path d="M20.63 47.439l.012-.003.191.863-.011.002-.191-.862M21.052 49.285l-.012.002.145.654.011-.003-.144-.653M21.403 50.927l.012-.003.19.862-.011.002-.191-.861"/>
        </g>
        <path d="M19.182 52.686l2.519-.558.016.074-2.519.557-.016-.073M18.172 47.983l.482 2.175-.012.003-.481-2.175.011-.003M18.065 47.643l2.519-.557-.016-.074-2.519.558.016.073" stroke="#b4897d" fill="#b4897d" stroke-width=".08"/>
        <path d="M18.603 50.13l2.543-.562.017.073-2.543.563-.017-.073M19.166 52.326l.093.42-.073.016-.093-.42.073-.016M18.203 47.976l-.093-.42-.073.017.093.42.073-.017" stroke="#b4897d" fill="#b4897d" stroke-width=".08"/>
        <path d="M18.654 50.158l.482 2.175-.012.002-.482-2.174.012-.003M21.656 52.215l-.093-.42.073-.016.093.42-.073.016M20.6 47.446l-.093-.42.073-.016.093.42-.073.016" stroke="#b4897d" fill="#b4897d" stroke-width=".08"/>
        <g stroke="#b4897d" fill="#b4897d" stroke-width=".08">
            <path d="M22.966 57.983l.011-.002.191.862-.011.003-.191-.863M23.387 59.83l-.012.002.145.653.011-.003-.144-.653M23.738 61.471l.012-.002.19.861-.011.003-.19-.862"/>
        </g>
        <path d="M21.517 63.23l2.519-.557.016.073-2.518.558-.017-.073M20.508 58.528l.481 2.175-.012.002-.481-2.175.012-.002M20.4 58.188l2.52-.558-.017-.073-2.519.558.017.073" stroke="#b4897d" fill="#b4897d" stroke-width=".08"/>
        <path d="M20.939 60.675l2.543-.563.016.073-2.543.564-.016-.074M21.502 62.87l.093.42-.074.017-.093-.42.074-.017M20.538 58.52l-.093-.419-.073.016.093.42.073-.016" stroke="#b4897d" fill="#b4897d" stroke-width=".08"/>
        <path d="M20.99 60.703l.48 2.174-.01.003-.483-2.175.012-.002M23.991 62.76l-.093-.42.073-.016.093.42-.073.016M22.935 57.99l-.093-.42.073-.016.093.42-.073.016" stroke="#b4897d" fill="#b4897d" stroke-width=".08"/>
        <g stroke="#b4897d" fill="#b4897d" stroke-width=".08">
            <path d="M26.468 73.8l.012-.002.191.862-.011.003-.192-.863M26.89 75.646l-.012.003.145.653.011-.003-.144-.653M27.24 77.288l.013-.003.19.862-.011.003-.191-.862"/>
        </g>
        <path d="M25.02 79.047l2.519-.557.016.073-2.519.558-.016-.074M24.01 74.344l.482 2.175-.012.003L24 74.347l.011-.002M23.903 74.005l2.519-.558-.016-.073-2.519.557.016.074" stroke="#b4897d" fill="#b4897d" stroke-width=".08"/>
        <path d="M24.442 76.492l2.543-.563.016.073-2.543.563-.016-.073M25.004 78.687l.093.42-.073.016-.093-.42.073-.016M24.041 74.338l-.093-.42-.073.016.093.42.073-.016" stroke="#b4897d" fill="#b4897d" stroke-width=".08"/>
        <path d="M24.492 76.52l.482 2.174-.012.003-.482-2.175.012-.003M27.494 78.576l-.093-.42.073-.016.093.42-.073.016M26.438 73.807l-.093-.42.073-.016.093.42-.073.016" stroke="#b4897d" fill="#b4897d" stroke-width=".08"/>
        <g stroke="#b4897d" fill="#b4897d" stroke-width=".08">
            <path d="M29.971 89.617l.012-.003.191.863-.012.002-.19-.862M30.392 91.463l-.011.002.144.653.012-.002-.145-.653M30.744 93.105l.011-.003.191.862-.012.002-.19-.861"/>
        </g>
        <path d="M28.523 94.864l2.519-.558.016.073-2.519.558-.016-.073M27.513 90.161l.482 2.175-.012.002-.482-2.174.012-.003M27.406 89.821l2.519-.558-.016-.073-2.52.558.017.073" stroke="#b4897d" fill="#b4897d" stroke-width=".08"/>
        <path d="M27.944 92.309l2.543-.563.017.073-2.544.563-.016-.073M28.507 94.504l.093.42-.073.016-.093-.42.073-.016M27.544 90.154l-.093-.42-.073.017.093.42.073-.017" stroke="#b4897d" fill="#b4897d" stroke-width=".08"/>
        <path d="M27.995 92.336l.482 2.175-.012.002-.482-2.175.012-.002M30.997 94.393l-.093-.42.073-.016.093.42-.073.016M29.94 89.624l-.093-.42.074-.016.093.42-.073.016" stroke="#b4897d" fill="#b4897d" stroke-width=".08"/>
        <g stroke="#b4897d" fill="#b4897d" stroke-width=".08">
            <path d="M36.912 89.7l-.01-.006.421-.776.01.006-.421.776M37.805 88.03l.01.006.32-.588-.01-.005-.32.587M38.617 86.56l-.01-.005.421-.776.01.006-.42.776"/>
        </g>
        <path d="M41.448 86.69l-2.267-1.232.036-.066 2.266 1.232-.035.066M39.124 90.902l1.064-1.958.01.006-1.063 1.957-.01-.005M38.982 91.228l-2.267-1.231-.036.066 2.267 1.231.036-.066" stroke="#b4897d" fill="#b4897d" stroke-width=".08"/>
        <path d="M40.208 88.998l-2.289-1.243.036-.066 2.289 1.243-.036.066M41.223 86.972l.206-.378.065.036-.205.378-.066-.036M39.097 90.887l-.206.377.066.036.206-.378-.066-.035" stroke="#b4897d" fill="#b4897d" stroke-width=".08"/>
        <path d="M40.188 88.944l1.063-1.957.01.006-1.063 1.957-.01-.006M39.272 85.422l-.206.378-.066-.036.206-.377.066.035M36.94 89.715l-.206.378-.066-.036.206-.378.066.036" stroke="#b4897d" fill="#b4897d" stroke-width=".08"/>
        <g stroke="#b4897d" fill="#b4897d" stroke-width=".08">
            <path d="M42.067 80.21l-.01-.006.422-.776.01.005-.422.777M42.96 78.54l.011.006.32-.588-.011-.005-.32.587M43.773 77.07l-.01-.005.42-.776.011.006-.421.776"/>
        </g>
        <path d="M46.603 77.2l-2.267-1.232.036-.066 2.267 1.232-.036.066M44.28 81.412l1.063-1.958.01.006-1.063 1.957-.01-.005M44.138 81.738l-2.267-1.231-.036.066 2.267 1.231.036-.066" stroke="#b4897d" fill="#b4897d" stroke-width=".08"/>
        <path d="M45.363 79.508l-2.288-1.243.035-.066 2.29 1.243-.037.066M46.379 77.482l.205-.378.066.036-.205.378-.066-.036M44.252 81.397l-.205.377.066.036.205-.378-.066-.035" stroke="#b4897d" fill="#b4897d" stroke-width=".08"/>
        <path d="M45.343 79.454l1.063-1.957.01.006-1.062 1.957-.011-.006M44.427 75.932l-.205.378-.066-.036.205-.377.066.035M42.095 80.225l-.205.378-.066-.036.205-.378.066.036" stroke="#b4897d" fill="#b4897d" stroke-width=".08"/>
        <g stroke="#b4897d" fill="#b4897d" stroke-width=".08">
            <path d="M49.8 65.975l-.01-.006.422-.776.01.005-.421.777M50.694 64.305l.01.006.32-.588-.01-.006-.32.588M51.506 62.836l-.01-.006.42-.776.011.006-.421.776"/>
        </g>
        <path d="M54.336 62.965l-2.267-1.232.036-.066 2.267 1.232-.036.066M52.013 67.176l1.063-1.957.01.006-1.063 1.957-.01-.006M51.87 67.503l-2.266-1.231-.036.066 2.267 1.231.036-.066" stroke="#b4897d" fill="#b4897d" stroke-width=".08"/>
        <path d="M53.096 65.273l-2.288-1.243.035-.066 2.29 1.243-.037.066M54.112 63.247l.205-.378.066.036-.205.377-.066-.035M51.985 67.161l-.205.378.066.036.205-.378-.066-.036" stroke="#b4897d" fill="#b4897d" stroke-width=".08"/>
        <path d="M53.076 65.22l1.063-1.958.011.005-1.063 1.958-.01-.006M52.16 61.697l-.205.378-.066-.036.205-.378.066.036M49.828 65.99l-.205.378-.066-.036.205-.378.066.036" stroke="#b4897d" fill="#b4897d" stroke-width=".08"/>
        <g stroke="#b4897d" fill="#b4897d" stroke-width=".08">
            <path d="M54.956 56.484l-.01-.005.421-.776.01.005-.421.776M55.85 54.815l.01.006.32-.588-.011-.006-.32.588M56.661 53.346l-.01-.006.421-.776.01.006-.42.776"/>
        </g>
        <path d="M59.492 53.474l-2.267-1.23.036-.067 2.266 1.232-.035.066M57.168 57.686l1.064-1.957.01.006-1.063 1.957-.01-.006M57.026 58.013l-2.267-1.231-.035.066 2.266 1.231.036-.066" stroke="#b4897d" fill="#b4897d" stroke-width=".08"/>
        <path d="M58.252 55.783l-2.289-1.244.036-.066 2.289 1.244-.036.066M59.267 53.757l.205-.378.066.036-.205.377-.066-.035M57.14 57.671l-.205.378.066.036.206-.378-.066-.036" stroke="#b4897d" fill="#b4897d" stroke-width=".08"/>
        <path d="M58.232 55.729l1.063-1.957.01.005-1.063 1.958-.01-.006M57.316 52.207l-.206.378-.066-.036.206-.378.066.036M54.984 56.5l-.206.377-.066-.035.206-.378.066.036" stroke="#b4897d" fill="#b4897d" stroke-width=".08"/>
        <g stroke="#b4897d" fill="#b4897d" stroke-width=".08">
            <path d="M60.111 46.994l-.01-.005.422-.776.01.005-.422.776M61.005 45.325l.01.006.32-.588-.011-.006-.32.588M61.817 43.855l-.01-.005.42-.776.011.006-.421.775"/>
        </g>
        <path d="M64.647 43.984l-2.267-1.231.036-.066 2.267 1.232-.036.065M62.324 48.196l1.063-1.957.01.006-1.063 1.957-.01-.006M62.181 48.523l-2.266-1.231-.036.066 2.267 1.23.035-.065" stroke="#b4897d" fill="#b4897d" stroke-width=".08"/>
        <path d="M63.407 46.293l-2.288-1.244.035-.066 2.29 1.244-.037.066M64.423 44.267l.205-.378.066.035-.206.378-.065-.035M62.296 48.181l-.205.378.066.036.205-.378-.066-.036" stroke="#b4897d" fill="#b4897d" stroke-width=".08"/>
        <path d="M63.387 46.239l1.063-1.957.01.005-1.062 1.958-.011-.006M62.47 42.717l-.204.378-.066-.036.205-.378.066.036M60.14 47.01l-.206.377-.066-.035.205-.378.066.036" stroke="#b4897d" fill="#b4897d" stroke-width=".08"/>
        <g stroke="#b4897d" fill="#b4897d" stroke-width=".08">
            <path d="M18.295 36.894l.012-.002.191.862-.012.003-.19-.863M18.716 38.74l-.011.003.144.653.012-.002-.145-.654M19.068 40.382l.011-.002.191.861-.011.003-.191-.862"/>
        </g>
        <path d="M16.847 42.142l2.519-.558.016.073-2.519.558-.016-.073M15.837 37.439l.482 2.175-.012.002-.481-2.175.011-.002M15.73 37.099l2.519-.558-.016-.073-2.52.558.017.073" stroke="#b4897d" fill="#b4897d" stroke-width=".08"/>
        <path d="M16.268 39.586l2.543-.563.017.073-2.543.564-.017-.074M16.831 41.782l.093.42-.073.016-.093-.42.073-.016M15.868 37.432l-.093-.42-.073.016.093.42.073-.016" stroke="#b4897d" fill="#b4897d" stroke-width=".08"/>
        <path d="M16.319 39.614l.482 2.174-.012.003-.482-2.175.012-.002M19.32 41.67l-.092-.42.073-.015.093.42-.073.016M18.265 36.901l-.093-.42.073-.016.093.42-.073.016M38.917 63.09l-.825-1.248-.015.01.825 1.247.015-.01" stroke="#b4897d" fill="#b4897d" stroke-width=".08"/>
    </g>
    <g>
        <path d="M37.401 76.251h0l-.004.003h0l-.002.002h0v.001l-.003.007v.01h0l.008.017h0l.013.01.108.058.235.128.008.003.008.002h.007l.01-.001.003-.001h0l.003-.003.005-.004.002-.002.002-.005h0v-.007l-.004-.003v-.001h-.004l-.003-.002-.008.001h-.008l-.002-.001-.005-.002-.23-.125-.113-.061-.002-.002-.003-.002h0l-.004-.006h-.001v-.002l-.003-.003-.003-.005h0-.001l-.003-.004H37.4M38.433 75.328v-.008l-.001-.004-.003-.002-.001-.002h-.006l-.004.001-.003.001-.004.004-.003.003-.003.004-.003.004-.001.003-.002.005v.004l-.001.005v.004l.002.004.002.002.002.002H38.413l.004-.002.004-.004.003-.003.003-.004.002-.004.002-.004.002-.004v-.005M37.995 76.24h-.001l-.01.004h-.002l-.01.009-.002.001-.008.012-.001.001-.005.013-.001.002-.002.014v.001l.002.011v.001l.002.001.005.006.009.002h.001l.01-.004h.002l.01-.01h.002v-.002l.009-.011.005-.013v-.002l.003-.013v-.002l-.003-.011v-.001l-.006-.007h0l-.01-.002M45.532 62.23h0-.002l-.004-.001h-.016 0l-.006-.002h-.001l-.087-.048-.256-.139-.003-.002-.002-.002-.004-.005-.001-.002v-.001l-.003-.003-.003-.005h0l-.004-.003h-.007l-.004.002-.001.002h0l-.002.005-.001.003v.011h0v.001l.004.008.004.007h0l.003.003.008.005.002.002.087.048.256.138.006.002.009.004h.008l.005-.001h.006l.002-.002h0l.005-.004.004-.003v-.002l.004-.005h0v-.001l-.002-.006h0l-.004-.004M45.77 60.885l.001-.005v-.008l-.001-.003-.001-.003-.003-.002-.002-.002h-.007l-.003.002-.003.002-.003.003-.004.003-.002.004-.003.005-.001.004-.002.006v.011l.002.003.002.002.003.002h.007l.003-.002.003-.002.004-.004.003-.002.003-.005.002-.004.002-.005M45.225 61.736v-.002l-.005-.007v-.001l-.009-.002h-.001l-.01.002h-.002l-.01.009h-.002l-.008.012-.001.001-.006.013v.002l-.003.014v.001l.001.012v.001l.001.001.005.007.009.003h0l.011-.003h.001l.011-.009h.001l.001-.002.009-.01.006-.014v-.001l.003-.014v-.002l-.002-.011" stroke="#b4897d" fill="#b4897d" stroke-width=".08"/>
    </g>
    <g>
        <path d="M27.172 49.046h.001l.01.006h.01l.007-.007h0l.001-.002.005-.011V49.014L27.204 49l-.006-.013v-.001l-.008-.01-.002-.002-.009-.004-.001-.001h-.008l-.001.001-.007.006h-.001l-.005.012v.002l-.001.014v.002l.002.014v.001l.006.013v.002l.01.01" stroke="#b4897d" fill="#b4897d" stroke-width=".08"/>
        <path d="M27.172 49.046h.001l.01.006h.01l.007-.007h0l.001-.002.005-.011V49.014L27.204 49l-.006-.013v-.001l-.008-.01-.002-.002-.009-.004-.001-.001h-.008l-.001.001-.007.006h-.001l-.005.012v.002l-.001.014v.002l.002.014v.001l.006.013v.002l.01.01M26.879 48.03l.002.003.003.003.003.002.003.001h.006l.002-.003.003-.002v-.003l.002-.005V48.011l-.001-.004-.002-.005-.002-.004-.003-.003-.002-.003-.004-.002H26.88l-.002.003-.002.002-.001.003-.002.004v.01l.001.005v.005l.003.004.002.004" stroke="#b4897d" fill="#b4897d" stroke-width=".08"/>
        <path d="M26.879 48.03l.002.003.003.003.003.002.003.001h.006l.002-.003.003-.002v-.003l.002-.005V48.011l-.001-.004-.002-.005-.002-.004-.003-.003-.002-.003-.004-.002H26.88l-.002.003-.002.002-.001.003-.002.004v.01l.001.005v.005l.003.004.002.004M26.722 49.373v.003h0v.005l.002.003.003.006.005.005.005.002.012.004h.016l.03-.007.351-.077h.001l.015-.007.008-.008.004-.005.002-.007V49.276l-.002-.002-.005-.002v-.001h-.006 0l-.002.002-.005.004-.002.002-.001.001-.003.002-.004.003-.005.002h-.001l-.355.079-.026.005h0l-.007.001h0-.005l-.003-.002h-.002l-.002-.002h-.007 0l-.002-.001h-.004l-.001.001-.001.001-.003.004" stroke="#b4897d" fill="#b4897d" stroke-width=".08"/>
        <path d="M26.722 49.373v.003h0v.005l.002.003.003.006.005.005.005.002.012.004h.016l.03-.007.351-.077h.001l.015-.007.008-.008.004-.005.002-.007V49.276l-.002-.002-.005-.002v-.001h-.006 0l-.002.002-.005.004-.002.002-.001.001-.003.002-.004.003-.005.002h-.001l-.355.079-.026.005h0l-.007.001h0-.005l-.003-.002h-.002l-.002-.002h-.007 0l-.002-.001h-.004l-.001.001-.001.001-.003.004" stroke="#b4897d" fill="#b4897d" stroke-width=".08"/>
    </g>
</svg>
