<?xml version="1.0" encoding="UTF-8" standalone="no"?>
<!-- Generator: Adobe Illustrator 16.0.0, SVG Export Plug-In . SVG Version: 6.00 Build 0)  -->

<svg
   xmlns:dc="http://purl.org/dc/elements/1.1/"
   xmlns:cc="http://creativecommons.org/ns#"
   xmlns:rdf="http://www.w3.org/1999/02/22-rdf-syntax-ns#"
   xmlns:svg="http://www.w3.org/2000/svg"
   xmlns="http://www.w3.org/2000/svg"
   xmlns:sodipodi="http://sodipodi.sourceforge.net/DTD/sodipodi-0.dtd"
   xmlns:inkscape="http://www.inkscape.org/namespaces/inkscape"
   version="1.1"
   id="Capa_1"
   x="0px"
   y="0px"
   width="89.726799"
   height="89.726799"
   viewBox="0 0 89.726802 89.726802"
   xml:space="preserve"
   sodipodi:docname="el.svg"
   inkscape:version="0.92.4 (33fec40, 2019-01-16)"><metadata
   id="metadata1099"><rdf:RDF><cc:Work
       rdf:about=""><dc:format>image/svg+xml</dc:format><dc:type
         rdf:resource="http://purl.org/dc/dcmitype/StillImage" /><dc:title></dc:title></cc:Work></rdf:RDF></metadata><defs
   id="defs1097" /><sodipodi:namedview
   pagecolor="#ffffff"
   bordercolor="#666666"
   borderopacity="1"
   objecttolerance="10"
   gridtolerance="10"
   guidetolerance="10"
   inkscape:pageopacity="0"
   inkscape:pageshadow="2"
   inkscape:window-width="1864"
   inkscape:window-height="1016"
   id="namedview1095"
   showgrid="false"
   inkscape:zoom="2.5744817"
   inkscape:cx="67.672978"
   inkscape:cy="65.644295"
   inkscape:window-x="56"
   inkscape:window-y="27"
   inkscape:window-maximized="1"
   inkscape:current-layer="Capa_1" />

<g
   id="g1064"
   transform="translate(-109.06163,-121.57788)">
</g>
<g
   id="g1066"
   transform="translate(-109.06163,-121.57788)">
</g>
<g
   id="g1068"
   transform="translate(-109.06163,-121.57788)">
</g>
<g
   id="g1070"
   transform="translate(-109.06163,-121.57788)">
</g>
<g
   id="g1072"
   transform="translate(-109.06163,-121.57788)">
</g>
<g
   id="g1074"
   transform="translate(-109.06163,-121.57788)">
</g>
<g
   id="g1076"
   transform="translate(-109.06163,-121.57788)">
</g>
<g
   id="g1078"
   transform="translate(-109.06163,-121.57788)">
</g>
<g
   id="g1080"
   transform="translate(-109.06163,-121.57788)">
</g>
<g
   id="g1082"
   transform="translate(-109.06163,-121.57788)">
</g>
<g
   id="g1084"
   transform="translate(-109.06163,-121.57788)">
</g>
<g
   id="g1086"
   transform="translate(-109.06163,-121.57788)">
</g>
<g
   id="g1088"
   transform="translate(-109.06163,-121.57788)">
</g>
<g
   id="g1090"
   transform="translate(-109.06163,-121.57788)">
</g>
<g
   id="g1092"
   transform="translate(-109.06163,-121.57788)">
</g>
<g
   id="g1062"
   transform="matrix(0.23659467,0,0,0.23659467,6.8614451,6.4581645)"
   style="fill:#ffffff">
	<g
   id="g1060"
   style="fill:#ffffff">
		<g
   id="g1106"><path
     transform="matrix(4.2266379,0,0,4.2266379,7.1175107,-66.237101)"
     d="M 42.124384,98.56265 A 44.8634,44.8634 0 0 1 -8.1662515,59.896969 44.8634,44.8634 0 0 1 30.483606,9.5941725 44.8634,44.8634 0 0 1 80.798559,48.228203 44.8634,44.8634 0 0 1 42.18036,98.555308"
     sodipodi:open="true"
     sodipodi:end="1.43975"
     sodipodi:start="1.4410084"
     sodipodi:ry="44.8634"
     sodipodi:rx="44.8634"
     sodipodi:cy="54.07658"
     sodipodi:cx="36.317989"
     sodipodi:type="arc"
     id="path1101"
     style="opacity:0.98999999;fill:#800080;fill-opacity:1;stroke-width:0.89534885" /><path
     style="fill:#ffffff"
     inkscape:connector-curvature="0"
     id="path1046"
     d="M 289.273,46.804 H 33.12 c -12.527,0 -22.719,10.191 -22.719,22.719 v 183.356 c 0,12.527 10.191,22.719 22.719,22.719 h 256.153 c 12.527,0 22.72,-10.191 22.72,-22.719 V 69.522 c 0,-12.527 -10.192,-22.718 -22.72,-22.718 z m 7.121,206.074 c 0,3.925 -3.189,7.119 -7.12,7.119 H 33.12 c -3.928,0 -7.119,-3.194 -7.119,-7.119 V 69.522 c 0,-3.925 3.191,-7.12 7.119,-7.12 h 256.153 c 3.931,0 7.12,3.194 7.12,7.12 v 183.356 z" /></g>
		<path
   d="m 109.447,35.759 c 0.896,3.442 3.994,5.845 7.551,5.845 h 93.597 c 3.555,0 6.652,-2.402 7.551,-5.845 0.889,-3.443 -0.655,-7.051 -3.763,-8.777 l -46.799,-26 c -2.355,-1.31 -5.22,-1.31 -7.579,0 l -46.799,26 c -3.103,1.731 -4.647,5.339 -3.759,8.777 z m 54.35,-19.032 16.696,9.277 H 147.1 Z"
   id="path1048"
   inkscape:connector-curvature="0"
   style="fill:#ffffff" />
		<path
   d="m 160.006,321.416 c 1.18,0.655 2.486,0.979 3.791,0.979 1.306,0 2.61,-0.324 3.788,-0.979 l 46.799,-25.999 c 3.113,-1.727 4.656,-5.332 3.768,-8.775 -0.903,-3.442 -4.001,-5.845 -7.556,-5.845 h -93.597 c -3.557,0 -6.655,2.402 -7.551,5.845 -0.889,3.438 0.655,7.044 3.766,8.775 z m 20.487,-25.02 -16.696,9.277 -16.696,-9.277 z"
   id="path1050"
   inkscape:connector-curvature="0"
   style="fill:#ffffff" />
		<path
   d="m 107.109,115.463 c 3.458,2.681 7.785,4.301 12.49,4.301 4.705,0 9.031,-1.62 12.489,-4.301 4.811,-3.74 7.924,-9.562 7.924,-16.11 0,-11.258 -9.155,-20.414 -20.413,-20.414 -11.258,0 -20.414,9.156 -20.414,20.414 0,6.548 3.113,12.37 7.924,16.11 z"
   id="path1052"
   inkscape:connector-curvature="0"
   style="fill:#ffffff" />
		<path
   d="m 140.101,121.927 c -0.025,0.025 -0.041,0.051 -0.066,0.076 -1.566,1.498 -3.293,2.813 -5.165,3.93 -4.316,2.58 -9.333,4.088 -14.726,4.088 -5.944,0 -11.466,-1.803 -16.051,-4.887 -1.379,-0.927 -2.658,-1.98 -3.849,-3.131 -0.036,-0.03 -0.066,-0.061 -0.104,-0.094 -0.114,-0.005 -0.155,-0.051 -0.274,-0.051 -5.87,0 -16.666,8.917 -16.666,17.829 v 53.408 c 0,4.255 3.671,7.784 8.564,8.571 0.556,0.086 2.089,0.111 2.381,0.097 0.005,0.503 -0.546,26.263 -0.546,26.263 v 13.386 c 0,5.022 5.736,8.187 11.54,8.187 h 1.564 c 5.804,0 12.896,-3.164 12.896,-8.187 v -14.157 -14.056 h 5.2 v 14.046 14.919 c 0,5.027 2.927,7.435 8.653,7.435 h 1.543 c 5.726,0 10.603,-2.407 10.603,-7.425 v -14.238 c 0,0 -0.224,-24.572 -0.203,-25.421 0.218,-0.005 2.059,-0.843 2.605,-0.959 4.633,-0.944 7.998,-4.357 7.998,-8.46 v -53.408 c -10e-4,-8.537 -9.9,-17.065 -15.897,-17.761 z"
   id="path1054"
   inkscape:connector-curvature="0"
   style="fill:#ffffff" />
		<path
   d="m 195.504,115.463 c 3.463,2.681 7.79,4.301 12.492,4.301 4.702,0 9.028,-1.62 12.491,-4.301 4.809,-3.74 7.922,-9.562 7.922,-16.11 0,-11.258 -9.155,-20.414 -20.413,-20.414 -11.258,0 -20.414,9.156 -20.414,20.414 0,6.548 3.113,12.37 7.922,16.11 z"
   id="path1056"
   inkscape:connector-curvature="0"
   style="fill:#ffffff" />
		<path
   d="m 228.501,121.927 c -0.031,0.025 -0.041,0.051 -0.071,0.076 -1.564,1.498 -3.291,2.813 -5.159,3.93 -4.316,2.58 -9.334,4.088 -14.727,4.088 -5.946,0 -11.466,-1.803 -16.057,-4.887 -1.376,-0.927 -2.655,-1.98 -3.849,-3.131 -0.03,-0.03 -0.062,-0.061 -0.102,-0.094 -0.112,-0.005 -0.152,-0.051 -0.274,-0.051 -5.87,0 -16.666,8.917 -16.666,17.829 v 53.408 c 0,4.255 3.672,7.784 8.562,8.571 0.559,0.086 2.092,0.111 2.387,0.097 0,0.503 -0.549,26.263 -0.549,26.263 v 13.386 c 0,5.022 5.738,8.187 11.538,8.187 h 1.563 c 5.81,0 12.898,-3.164 12.898,-8.187 v -14.157 -14.056 h 5.199 v 14.046 14.919 c 0,5.027 2.925,7.435 8.653,7.435 h 1.544 c 5.728,0 10.603,-2.407 10.603,-7.425 v -14.238 c 0,0 -0.224,-24.572 -0.203,-25.421 0.219,-0.005 2.062,-0.843 2.604,-0.959 4.637,-0.944 7.998,-4.357 7.998,-8.46 v -53.408 c 0.002,-8.537 -9.9,-17.065 -15.892,-17.761 z"
   id="path1058"
   inkscape:connector-curvature="0"
   style="fill:#ffffff" />
	</g>
</g></svg>