<?xml version="1.0" encoding="UTF-8" standalone="no"?>
<!-- Generator: Adobe Illustrator 16.0.0, SVG Export Plug-In . SVG Version: 6.00 Build 0)  -->

<svg
   xmlns:dc="http://purl.org/dc/elements/1.1/"
   xmlns:cc="http://creativecommons.org/ns#"
   xmlns:rdf="http://www.w3.org/1999/02/22-rdf-syntax-ns#"
   xmlns:svg="http://www.w3.org/2000/svg"
   xmlns="http://www.w3.org/2000/svg"
   xmlns:sodipodi="http://sodipodi.sourceforge.net/DTD/sodipodi-0.dtd"
   xmlns:inkscape="http://www.inkscape.org/namespaces/inkscape"
   version="1.1"
   id="Capa_1"
   x="0px"
   y="0px"
   width="89.726799"
   height="89.726799"
   viewBox="0 0 89.726802 89.726802"
   xml:space="preserve"
   sodipodi:docname="wc2.svg"
   inkscape:version="0.92.4 (33fec40, 2019-01-16)"><metadata
   id="metadata1099"><rdf:RDF><cc:Work
       rdf:about=""><dc:format>image/svg+xml</dc:format><dc:type
         rdf:resource="http://purl.org/dc/dcmitype/StillImage" /><dc:title></dc:title></cc:Work></rdf:RDF></metadata><defs
   id="defs1097">
	

		
		
		
		
		
		
		
	</defs><sodipodi:namedview
   pagecolor="#ffffff"
   bordercolor="#666666"
   borderopacity="1"
   objecttolerance="10"
   gridtolerance="10"
   guidetolerance="10"
   inkscape:pageopacity="0"
   inkscape:pageshadow="2"
   inkscape:window-width="1864"
   inkscape:window-height="1016"
   id="namedview1095"
   showgrid="false"
   inkscape:zoom="2.5744817"
   inkscape:cx="67.672978"
   inkscape:cy="65.644295"
   inkscape:window-x="56"
   inkscape:window-y="27"
   inkscape:window-maximized="1"
   inkscape:current-layer="Capa_1" />

<g
   id="g1064"
   transform="translate(-109.06163,-121.57788)">
</g>
<g
   id="g1066"
   transform="translate(-109.06163,-121.57788)">
</g>
<g
   id="g1068"
   transform="translate(-109.06163,-121.57788)">
</g>
<g
   id="g1070"
   transform="translate(-109.06163,-121.57788)">
</g>
<g
   id="g1072"
   transform="translate(-109.06163,-121.57788)">
</g>
<g
   id="g1074"
   transform="translate(-109.06163,-121.57788)">
</g>
<g
   id="g1076"
   transform="translate(-109.06163,-121.57788)">
</g>
<g
   id="g1078"
   transform="translate(-109.06163,-121.57788)">
</g>
<g
   id="g1080"
   transform="translate(-109.06163,-121.57788)">
</g>
<g
   id="g1082"
   transform="translate(-109.06163,-121.57788)">
</g>
<g
   id="g1084"
   transform="translate(-109.06163,-121.57788)">
</g>
<g
   id="g1086"
   transform="translate(-109.06163,-121.57788)">
</g>
<g
   id="g1088"
   transform="translate(-109.06163,-121.57788)">
</g>
<g
   id="g1090"
   transform="translate(-109.06163,-121.57788)">
</g>
<g
   id="g1092"
   transform="translate(-109.06163,-121.57788)">
</g>
<g
   id="g36794"><path
     d="M 50.669794,89.349469 A 44.8634,44.8634 0 0 1 0.37915865,50.683789 44.8634,44.8634 0 0 1 39.029016,0.38099194 44.8634,44.8634 0 0 1 89.343969,39.015022 44.8634,44.8634 0 0 1 50.72577,89.342127"
     sodipodi:open="true"
     sodipodi:end="1.43975"
     sodipodi:start="1.4410084"
     sodipodi:ry="44.8634"
     sodipodi:rx="44.8634"
     sodipodi:cy="44.8634"
     sodipodi:cx="44.8634"
     sodipodi:type="arc"
     id="path1101"
     style="opacity:0.98999999;fill:#554400;fill-opacity:1;stroke-width:0.89534885" /></g><g
   transform="matrix(0.14879578,0,0,0.14879578,13.557377,11.955063)"
   id="g36031"
   style="fill:#ffffff"><g
     id="g36029"
     style="fill:#ffffff"><g
       id="g36027"
       style="fill:#ffffff"><path
         inkscape:connector-curvature="0"
         d="m 106.667,85.333 c 23.573,0 42.667,-19.093 42.667,-42.667 C 149.333,19.093 130.24,0 106.667,0 83.094,0 64,19.093 64,42.667 64,66.24 83.093,85.333 106.667,85.333 Z"
         id="path36019"
         style="fill:#ffffff" /><path
         inkscape:connector-curvature="0"
         d="m 298.667,85.333 c 23.573,0 42.667,-19.093 42.667,-42.667 C 341.333,19.093 322.24,0 298.667,0 275.093,0 256,19.093 256,42.667 c 0,23.573 19.093,42.666 42.667,42.666 z"
         id="path36021"
         style="fill:#ffffff" /><path
         inkscape:connector-curvature="0"
         d="m 138.667,106.667 h -64 C 51.2,106.667 32,125.867 32,149.333 v 117.333 h 32 v 160 h 85.333 v -160 h 32 V 149.333 c 0,-23.466 -19.2,-42.666 -42.666,-42.666 z"
         id="path36023"
         style="fill:#ffffff" /><path
         inkscape:connector-curvature="0"
         d="m 340.373,135.893 c -5.76,-17.493 -22.08,-29.227 -40.427,-29.227 h -2.453 c -18.347,0 -34.667,11.733 -40.427,29.227 l -54.4,162.773 h 64 v 128 h 64 v -128 h 64 z"
         id="path36025"
         style="fill:#ffffff" /></g></g></g></svg>